<svg xmlns="http://www.w3.org/2000/svg" viewBox="0 0 512 512" style="height: 512px; width: 512px;"><defs><filter id="shadow-1" height="300%" width="300%" x="-100%" y="-100%"><feFlood flood-color="rgba(255, 255, 255, 1)" result="flood"></feFlood><feComposite in="flood" in2="SourceGraphic" operator="atop" result="composite"></feComposite><feGaussianBlur in="composite" stdDeviation="15" result="blur"></feGaussianBlur><feOffset dx="0" dy="0" result="offset"></feOffset><feComposite in="SourceGraphic" in2="offset" operator="over"></feComposite></filter><filter id="shadow-2" height="300%" width="300%" x="-100%" y="-100%"><feFlood flood-color="rgba(255, 255, 255, 1)" result="flood"></feFlood><feComposite in="flood" in2="SourceGraphic" operator="atop" result="composite"></feComposite><feGaussianBlur in="composite" stdDeviation="15" result="blur"></feGaussianBlur><feOffset dx="0" dy="0" result="offset"></feOffset><feComposite in="SourceGraphic" in2="offset" operator="over"></feComposite></filter><filter id="shadow-4" height="300%" width="300%" x="-100%" y="-100%"><feFlood flood-color="rgba(255, 255, 255, 1)" result="flood"></feFlood><feComposite in="flood" in2="SourceGraphic" operator="atop" result="composite"></feComposite><feGaussianBlur in="composite" stdDeviation="15" result="blur"></feGaussianBlur><feOffset dx="0" dy="0" result="offset"></feOffset><feComposite in="SourceGraphic" in2="offset" operator="over"></feComposite></filter><filter id="shadow-5" height="300%" width="300%" x="-100%" y="-100%"><feFlood flood-color="rgba(255, 255, 255, 1)" result="flood"></feFlood><feComposite in="flood" in2="SourceGraphic" operator="atop" result="composite"></feComposite><feGaussianBlur in="composite" stdDeviation="15" result="blur"></feGaussianBlur><feOffset dx="0" dy="0" result="offset"></feOffset><feComposite in="SourceGraphic" in2="offset" operator="over"></feComposite></filter><filter id="shadow-6" height="300%" width="300%" x="-100%" y="-100%"><feFlood flood-color="rgba(255, 255, 255, 1)" result="flood"></feFlood><feComposite in="flood" in2="SourceGraphic" operator="atop" result="composite"></feComposite><feGaussianBlur in="composite" stdDeviation="15" result="blur"></feGaussianBlur><feOffset dx="0" dy="0" result="offset"></feOffset><feComposite in="SourceGraphic" in2="offset" operator="over"></feComposite></filter></defs><g class="" transform="translate(0,0)" style=""><path d="M362.005 149.115s-7 55.77-79 83.36v-24.69c-2.76-1-4.63 7.88-7.26 9.15h-39.49c-2.63-1.27-4.5-10.11-7.26-9.15v24.69c-72-27.59-79-83.36-79-83.36-60.71 67.68-121.41 80-121.41 80 102.53-16.11 101.36 44.89 101.36 44.89 69.71-11.91 65.64 36.31 65.64 36.31 60.63-6.9 60.41 52.57 60.41 52.57s-.22-59.47 60.41-52.57c0 0-4.07-48.22 65.64-36.31 0 0-1.16-61 101.37-44.88.02.01-60.69-12.33-121.41-80.01z" fill="#d0021b" fill-opacity="1" filter="url(#shadow-1)"></path></g><g class="" transform="translate(256,256)" style=""><g transform="translate(240, 240) scale(-0.5, -0.5) rotate(180, 128, 128)"><circle cx="128" cy="128" r="128" fill="#d0021b" fill-opacity="1"></circle><circle stroke="#ffffff" stroke-opacity="1" fill="#d0021b" fill-opacity="1" stroke-width="18" cx="128" cy="128" r="101"></circle><path fill="#ffffff" fill-opacity="1" d="M128 58c-32 0-64 16-64 37.838C64 154 96 142 96 142l-6 24h76l-6-24s32 12 32-52c0-16-32-32-64-32zm-26 38a16 16 0 0 1 16 16 16 16 0 0 1-16 16 16 16 0 0 1-16-16 16 16 0 0 1 16-16zm52 0a16 16 0 0 1 16 16 16 16 0 0 1-16 16 16 16 0 0 1-16-16 16 16 0 0 1 16-16zm-26 34l10 26h-20l10-26zm-28 51.002v17.996h56v-17.996h-56z"></path></g></g></svg>