<svg xmlns="http://www.w3.org/2000/svg" viewBox="0 0 512 512" style="height: 512px; width: 512px;"><g class="" transform="translate(0,0)" style=""><g><path d="M258.495 20.105C176.67 77.45 133.118 142.24 128 207.63L220.155 261.754L165.015 205.662C168.678 158.838 199.862 112.442 258.455 71.379C317.048 112.439 348.049 158.952 351.712 205.772L296.562 261.729L388.724 207.782C383.61 142.397 340.32 77.45 258.494 20.105Z" class="" fill="#9013fe" fill-opacity="1"></path><path d="M221.72 165.123C214.444 165.123 207.253 170.513 200.624 178.621C213.831 194.578 229.631 194.719 242.814 178.621C236.132 170.351 229.068 165.121 221.72 165.124Z" class="" fill="#d0021b" fill-opacity="1"></path><path d="M292.204 165.123C284.929 165.123 277.737 170.513 271.108 178.621C284.316 194.578 300.118 194.719 313.302 178.621C306.619 170.351 299.552 165.121 292.204 165.124Z" class="" fill="#d0021b" fill-opacity="1"></path><path d="M137.734 238.433L135.844 240.191C135.839 240.161 135.829 240.131 135.824 240.101L135.694 240.333L69.991 301.505C93.921 364.971 92.333 428.429 89.851 491.895L127.811 491.895C120.837 456.995 113.807 414.45 112.994 370.805C122.104 377.605 133.801 382.722 147.932 385.548C136.302 374.758 130.127 360.601 132.132 346.39C147.512 353.49 164.785 355.484 182.792 351.002C164.042 343.002 147.852 327.344 139.732 307.246C166.665 321.396 195.024 325.888 219.092 317.02C182.855 308.11 145.018 279.45 136.196 241.674C136.701 240.59 137.211 239.509 137.736 238.434Z" class="" fill="#9013fe" fill-opacity="1"></path><path d="M374.267 238.433C374.569 239.053 374.857 239.68 375.153 240.303L375.043 240.1C366.923 278.656 328.513 307.987 291.773 317.02C317.365 326.45 347.809 320.773 376.231 304.44C368.531 325.887 351.707 342.632 332.091 351.002C348.561 355.102 364.417 353.787 378.773 348.102C380.07 361.732 373.933 375.19 362.77 385.547C377.59 382.583 389.74 377.101 399.028 369.799C398.306 413.794 391.22 456.723 384.192 491.894L422.152 491.894C419.668 428.427 418.08 364.969 442.009 301.504L374.266 238.434Z" class="selected" fill="#9013fe" fill-opacity="1"></path></g></g><g class="" transform="translate(256,256)" style=""><g transform="translate(240, 240) scale(-0.5, -0.5) rotate(180, 128, 128)"><circle cx="128" cy="128" r="128" fill="#d0021b" fill-opacity="1"></circle><circle stroke="#ffffff" stroke-opacity="1" fill="#d0021b" fill-opacity="1" stroke-width="18" cx="128" cy="128" r="101"></circle><path fill="#ffffff" fill-opacity="1" d="M128 58c-32 0-64 16-64 37.838C64 154 96 142 96 142l-6 24h76l-6-24s32 12 32-52c0-16-32-32-64-32zm-26 38a16 16 0 0 1 16 16 16 16 0 0 1-16 16 16 16 0 0 1-16-16 16 16 0 0 1 16-16zm52 0a16 16 0 0 1 16 16 16 16 0 0 1-16 16 16 16 0 0 1-16-16 16 16 0 0 1 16-16zm-26 34l10 26h-20l10-26zm-28 51.002v17.996h56v-17.996h-56z"></path></g></g></svg>