<svg xmlns="http://www.w3.org/2000/svg" viewBox="0 0 512 512" style="height: 512px; width: 512px;"><g class="" transform="translate(0,0)" style=""><g><path d="M193.571 26.027L228.763 110.017C243.64 117.675 261.884 116.713 276.251 108.738L316.534 22.762C270.952 15.494 232.022 17.817 193.571 26.027Z" class="" fill="#417505" fill-opacity="1"></path><path d="M330.871 33.633L298.833 105.013C311.369 117.362 336.07 123.885 345.866 120.461L377.038 55.77C364.616 47.378 349.61 39.884 330.87 33.633Z" class="" fill="#7ed321" fill-opacity="1"></path><path d="M176.011 31.663C154.197 38.213 135.029 48.013 119.912 60.254C134.853 76.098 148.773 94.438 158.106 113.086C182.583 119.219 193.585 106.237 205.581 94.536Z" class="" fill="#7ed321" fill-opacity="1"></path><path d="M101.766 66.494C65.225 99.404 35.243 142.914 23.698 191.709L89.655 195.062C101.661 164.532 114.207 138.778 143.886 122.307C134.003 102.067 120.26 82.904 101.766 66.494Z" class="" fill="#417505" fill-opacity="1"></path><path d="M394.269 66.204L362.417 127.248C394.957 148.255 405.989 168.596 415.014 196.248L487.478 187.818C477.866 131.924 445.272 80.771 394.269 66.204Z" class="" fill="#417505" fill-opacity="1"></path><path d="M342.036 203.404C346.793 216.341 326.194 233.104 332.966 242.832C328.955 243.682 324.092 244.474 318.581 233.875C317.455 246.365 320.753 253.478 330.749 263.084C328.067 263.867 322.704 265.834 318.669 263.65C317.429 271.036 329.536 277.513 339.394 278.482L347.786 276.307C341.696 275.201 339.905 272.992 337.159 270.177C340.129 268.857 349.713 263.06 339.308 255.426C351.942 252.674 345.343 240.536 343.448 233.564C350.973 241.362 358.691 256.104 365.31 240.648C369.486 253.252 371.871 252.768 378.924 249.755C379.978 258.951 375.967 264.546 370.132 272.273L382.626 267.281C388.644 262.255 402.786 241.779 389.054 231.781C391.657 244.224 383.491 246.169 370.382 220.844C366.005 251.617 358.146 213.354 342.036 203.404Z" class="" fill="#d0021b" fill-opacity="1"></path><path d="M20.368 205.512L20.368 271.754L93.21 259.896L94.802 210.023Z" class="" fill="#7ed321" fill-opacity="1"></path><path d="M163.854 205.875C167.586 214.595 149.367 251.101 144.989 220.328C131.88 245.653 121.081 244.588 123.685 232.145C109.953 242.143 122.338 265.603 128.356 270.629L139.585 273.63C133.75 265.903 128.02 260.016 129.073 250.82C136.126 253.833 139.565 256.424 143.741 243.82C150.359 259.276 161.061 239.442 168.587 231.645C167.033 243.139 162.305 254.072 175.89 256.842C166.76 266.924 177.789 276.832 163.196 279.654L171.589 281.83C181.446 280.86 191.974 271.224 190.733 263.838C186.698 266.021 182.915 267.214 180.233 266.432C190.229 256.825 190.895 244.972 189.769 232.482C184.258 243.082 181.852 244.22 178.017 246.18C184.787 236.452 172.09 213.895 163.854 205.875Z" class="" fill="#d0021b" fill-opacity="1"></path><path d="M491.366 207.047L413.796 212.734L414.952 291.926L490.476 294.768Z" class="" fill="#7ed321" fill-opacity="1"></path><path d="M98.313 279.81L18.358 289.589L19.56 389.343L103.1 390.495Z" class="" fill="#417505" fill-opacity="1"></path><path d="M378.972 287.157L350.64 294.188L372.095 362.503L388.22 357.46Z" class="" fill="#8b572a" fill-opacity="1"></path><path d="M132.011 290.505L122.763 360.808L138.888 365.851L160.343 297.536Z" class="" fill="#8b572a" fill-opacity="1"></path><path d="M412.269 310.3L412.269 393.88L491.435 385.849L493.724 310.299Z" class="" fill="#417505" fill-opacity="1"></path><path d="M496.874 401.956L407.94 411.903L406.78 492.63L497.454 493.216Z" class="" fill="#7ed321" fill-opacity="1"></path><path d="M101.052 403.958L19.204 406.28L14.546 492.464L104.546 492.464Z" class="selected" fill="#7ed321" fill-opacity="1"></path></g></g></svg>