<svg xmlns="http://www.w3.org/2000/svg" viewBox="0 0 512 512" style="height: 512px; width: 512px;"><g class="" transform="translate(0,0)" style=""><g><path d="M182.344 19.906L28.78 173.47L255.626 487.5L481.938 174L328.375 20.47L255.625 93.22L182.345 19.906Z" class="" fill="#f5a623" fill-opacity="1"></path><path d="M181.406 47.656L188 54.28L255.625 121.906L323.25 54.28L329.875 47.656L336.469 54.281L452.56 170.376L458.185 176.001L453.529 182.439L263.219 446.219L255.624 456.719L248.061 446.219L57.72 182.44L53.062 176L58.686 170.375L174.78 54.28L181.406 47.656Z" class="selected" fill="#e73147" fill-opacity="1"></path><path d="M181.406 74.094L77.53 177.97L255.625 424.78L433.72 177.97L329.874 74.093L268.874 135.063L334.874 201.063L341.468 207.655L334.873 214.28L256.623 292.53L249.998 299.156L243.404 292.531L165.154 214.281L178.342 201.063L250 272.72L315.063 207.687L255.656 148.281L255.626 148.313L249.031 141.72L181.407 74.094Z" class="" fill="#d0021b" fill-opacity="1"></path><path d="M182.812 98.874L291.844 207.906L278.624 221.126L169.594 112.094L182.814 98.874Z" class="" fill="#ffffff" fill-opacity="1"></path><path d="M330.782 98.874L412.219 180.281L399 193.5L317.594 112.094L330.781 98.874Z" class="" fill="#ffffff" fill-opacity="1"></path></g></g><g class="" transform="translate(256,256)" style=""><g transform="translate(240, 240) scale(-0.5, -0.5) rotate(180, 128, 128)"><circle cx="128" cy="128" r="128" fill="#7ed321" fill-opacity="1"></circle><circle stroke="#ffffff" stroke-opacity="1" fill="#7ed321" fill-opacity="1" stroke-width="18" cx="128" cy="128" r="101"></circle><path fill="#ffffff" fill-opacity="1" d="M128 53.524l-17.354 51.819-54.646.492 43.92 32.518-16.418 52.123L128 158.754l44.498 31.722-16.418-52.123L200 105.835l-54.646-.492z"></path></g></g></svg>