<svg xmlns="http://www.w3.org/2000/svg" viewBox="0 0 512 512" style="height: 512px; width: 512px;"><g class="" transform="translate(0,0)" style=""><g><path d="M94.055 21.9L18.998 96.96L61.725 120.56L34.745 147.512L142.35 212.39C101.907 282.538 111.63 373.46 171.55 433.348C243.155 504.954 359.287 504.935 430.906 433.348C502.526 361.761 502.548 245.694 430.943 174.128C371.028 114.25 280.047 104.558 209.859 144.951L144.95 37.415L136.51 45.847L117.922 64.417L94.055 21.9Z" class="" fill="#d0021b" fill-opacity="1"></path><path d="M141.279 67.498L203.616 170.773L211.714 165.525C255.924 136.862 310.728 131.481 358.88 149.447C357.72 149.421 356.552 149.407 355.377 149.407C316.389 149.407 284.783 164.214 284.783 182.48C284.783 200.75 316.389 215.555 355.377 215.555C386.907 215.555 413.602 205.871 422.664 192.505C438.606 209.845 450.156 229.729 457.314 250.758C449.554 247.371 439.034 244.052 426.412 241.195C395.029 234.095 350.865 229.58 302.107 229.58C253.35 229.58 209.187 234.094 177.803 241.195C164.093 244.297 152.806 247.945 144.91 251.633C149.25 238.636 155.253 226.065 162.928 214.25L168.191 206.146L64.861 143.846L78.755 129.966L125.692 155.889L153.606 127.974L127.426 81.339L141.281 67.497Z" class="" fill="#ffffff" fill-opacity="1"></path><path d="M140.192 268.785C140.674 269.065 141.174 269.345 141.698 269.625C149.588 273.845 162.108 278.112 177.801 281.662C209.184 288.762 253.348 293.277 302.105 293.277C350.863 293.277 395.027 288.763 426.41 281.662C442.097 278.112 454.613 273.849 462.504 269.629C463.74 275.466 464.657 281.356 465.25 287.272C455.818 291.549 444.046 295.165 430.176 298.304C396.971 305.817 351.906 310.341 302.106 310.341C252.304 310.341 207.24 305.817 174.036 298.304C159.366 294.984 147.036 291.134 137.346 286.528C137.971 280.576 138.916 274.652 140.191 268.783Z" class="selected" fill="#ffffff" fill-opacity="1"></path></g></g><g class="" transform="translate(256,256)" style=""><g transform="translate(240, 240) scale(-0.5, -0.5) rotate(180, 128, 128)"><circle cx="128" cy="128" r="128" fill="#7ed321" fill-opacity="1"></circle><circle stroke="#ffffff" stroke-opacity="1" fill="#7ed321" fill-opacity="1" stroke-width="18" cx="128" cy="128" r="101"></circle><path fill="#ffffff" fill-opacity="1" d="M128 53.524l-17.354 51.819-54.646.492 43.92 32.518-16.418 52.123L128 158.754l44.498 31.722-16.418-52.123L200 105.835l-54.646-.492z"></path></g></g></svg>