<svg xmlns="http://www.w3.org/2000/svg" viewBox="0 0 512 512" style="height: 512px; width: 512px;"><g class="" transform="translate(0,0)" style=""><g><path d="M256 24L236 48L248 67.2L248 105.9C253.3 106.2 258.7 106.2 264 105.9L264 67.2L276 48L256 24Z" class="" fill="#8b572a" fill-opacity="1"></path><path d="M194.5 110.4L189.5 125.6C238.5 141.9 273.5 141.9 322.5 125.6L317.5 110.4C270.5 126.1 241.5 126.1 194.5 110.4Z" class="" fill="#9b9b9b" fill-opacity="1"></path><path d="M232 152L232 280L248 280L248 152L232 152Z" class="" fill="#c9c9c9" fill-opacity="1"></path><path d="M264 152L264 280L280 280L280 152L264 152Z" class="" fill="#c9c9c9" fill-opacity="1"></path><path d="M212.9 296L204.9 312L307.1 312L299.1 296L212.9 296Z" class="" fill="#b57204" fill-opacity="1"></path><path d="M132.7 328L71.65 440L440.3 440L379.2 328L132.7 328Z" class="" fill="#8d621c" fill-opacity="1"></path><path d="M176 344L272 344L272 360L176 360L176 344Z" class="" fill="#f5a623" fill-opacity="1"></path><path d="M288 344L336 344L336 360L288 360L288 344Z" class="" fill="#f8e71c" fill-opacity="1"></path><path d="M176 376L208 376L208 392L176 392L176 376Z" class="" fill="#f5a623" fill-opacity="1"></path><path d="M224 376L336 376L336 392L224 392L224 376Z" class="" fill="#f5a623" fill-opacity="1"></path><path d="M176 408L240 408L240 424L176 424L176 408Z" class="" fill="#f8e71c" fill-opacity="1"></path><path d="M37.77 456L27.1 488L484.9 488L474.2 456L37.77 456Z" class="selected" fill="#8b572a" fill-opacity="1"></path></g></g><g class="" transform="translate(256,256)" style=""><g transform="translate(240, 240) scale(-0.5, -0.5) rotate(180, 128, 128)"><circle cx="128" cy="128" r="128" fill="#7ed321" fill-opacity="1"></circle><circle stroke="#ffffff" stroke-opacity="1" fill="#7ed321" fill-opacity="1" stroke-width="18" cx="128" cy="128" r="101"></circle><path fill="#ffffff" fill-opacity="1" d="M128 53.524l-17.354 51.819-54.646.492 43.92 32.518-16.418 52.123L128 158.754l44.498 31.722-16.418-52.123L200 105.835l-54.646-.492z"></path></g></g></svg>